# xmcd
#
# Track frame offsets:
#	150
#	11820
#	26567
#	37207
#	50547
#	60295
#	73685
#	85155
#	100280
#	116852
#	129817
#	145607
#	160587
#	173605
#	188275
#
# Disc length: 2665
#
# Revision: 1
# Processed by: cddbd v1.5.1PL2 Copyright (c) Steve Scherf et al.
# Submitted via: kTunes Pro (development) 1.0patch43.26
#
DISCID=bb0a670f
DTITLE=Various Artist - SC8262 Classic Country Vol. 3
DYEAR=1990
DGENRE=Country
TTITLE0=George Jones - Walk Through This World With Me
TTITLE1=Carl Butler - Don't Let Me Cross Over
TTITLE2=Burl Ives - A Little Bitty Tear
TTITLE3=Eddy Arnold - The Cattle Call
TTITLE4=Webb Pierce - I Ain't Never
TTITLE5=Buck Owens - Under Your Spell Again
TTITLE6=Sonny James - You're The Only World I Know
TTITLE7=Johnny Cash - Don't Take Your Guns To Town
TTITLE8=Roy Clark - Yesterday When I Was Young
TTITLE9=Tammy Wynette - I Don't Wanna Play House
TTITLE10=Conway Twitty - Slow Hand
TTITLE11=Johnny Cash and June Carter - Jackson
TTITLE12=Moe Bandy - It's A Cheating Situation
TTITLE13=Ronnie Milsap - (I'd Be) A Legend In My Time
TTITLE14=The Statler Brothers - Do You Know You Are My Sunshine
EXTD=
EXTT0=
EXTT1=
EXTT2=
EXTT3=
EXTT4=
EXTT5=
EXTT6=
EXTT7=
EXTT8=
EXTT9=
EXTT10=
EXTT11=
EXTT12=
EXTT13=
EXTT14=
PLAYORDER=
